<?xml version="1.0" standalone="no"?><!DOCTYPE svg PUBLIC "-//W3C//DTD SVG 1.1//EN" "http://www.w3.org/Graphics/SVG/1.1/DTD/svg11.dtd"><svg t="1586955554198" class="icon" viewBox="0 0 1024 1024" version="1.1" xmlns="http://www.w3.org/2000/svg" p-id="2747" xmlns:xlink="http://www.w3.org/1999/xlink" width="128" height="128"><defs><style type="text/css"></style></defs><path d="M870.4 12.8H153.6A140.902 140.902 0 0 0 12.8 153.6v716.8a140.902 140.902 0 0 0 140.8 140.8h504.32a38.4 38.4 0 0 0 0-76.8H153.6c-35.277 0-64-28.723-64-64V153.6c0-35.277 28.723-64 64-64h716.8c35.277 0 64 28.723 64 64v716.8c0 35.277-28.723 64-64 64h-11.469a38.4 38.4 0 0 0 0 76.8H870.4a140.902 140.902 0 0 0 140.8-140.8V153.6A140.902 140.902 0 0 0 870.4 12.8z" p-id="2748"></path><path d="M243.558 294.4h389.888a38.4 38.4 0 0 0 0-76.8H243.558a38.4 38.4 0 0 0 0 76.8z m486.4 179.2H242.842a38.4 38.4 0 0 0 0 76.8h487.116a38.4 38.4 0 0 0 0-76.8z m-486.4 256a38.4 38.4 0 0 0 0 76.8h192.973a38.4 38.4 0 0 0 0-76.8H243.558z m541.543-512h-3.943c-21.196 0-36.403 17.203-36.403 38.4s19.2 38.4 40.397 38.4a38.4 38.4 0 1 0-0.051-76.8z" p-id="2749"></path></svg>