<?xml version="1.0" standalone="no"?><!DOCTYPE svg PUBLIC "-//W3C//DTD SVG 1.1//EN" "http://www.w3.org/Graphics/SVG/1.1/DTD/svg11.dtd"><svg t="1584600355790" class="icon" viewBox="0 0 1024 1024" version="1.1" xmlns="http://www.w3.org/2000/svg" p-id="3975" xmlns:xlink="http://www.w3.org/1999/xlink" width="200" height="200"><defs><style type="text/css"></style></defs><path d="M933.464007 512c0-59.806107 37.527708-110.542652 90.189092-130.818441-12.582573-49.328475-31.985482-95.798856-57.347103-138.479935-51.578726 22.906709-113.991194 13.570063-156.287509-28.725228-42.289152-42.295292-51.631938-104.712877-28.723182-156.289556-42.683125-25.355481-89.151459-44.757367-138.481981-57.33994-20.273742 52.661384-71.012334 90.182952-130.813325 90.182952-59.808154 0-110.546745-37.521568-130.820488-90.182952C331.84899 12.929474 285.380656 32.330336 242.697531 57.68684c22.908756 51.576679 13.566994 113.994264-28.723182 156.289556-42.297338 42.295292-104.709807 51.631938-156.287509 28.725228-25.361621 42.681078-44.757367 89.151459-57.33994 138.479935 52.661384 20.275789 90.180905 71.012334 90.180905 130.818441S53.008284 622.538559 0.346901 642.818441c12.582573 49.328475 31.985482 95.798856 57.33994 138.479935 51.578726-22.906709 113.991194-13.570063 156.287509 28.725228 42.289152 42.291199 51.631938 104.70776 28.723182 156.287509 42.683125 25.355481 89.151459 44.759413 138.481981 57.341986 20.273742-52.66343 71.012334-90.187045 130.820488-90.187045 59.799968 0 110.538559 37.523615 130.813325 90.187045 49.330522-12.582573 95.798856-31.985482 138.481981-57.341986-22.908756-51.580772-13.566994-113.996311 28.723182-156.287509 42.297338-42.295292 104.708783-51.631938 156.287509-28.725228 25.354458-42.681078 44.757367-89.151459 57.347103-138.479935C970.991716 622.538559 933.464007 571.806107 933.464007 512zM512 652.500964c-77.599356 0-140.503011-62.904679-140.503011-140.500964s62.904679-140.500964 140.503011-140.500964c77.591169 0 140.495848 62.904679 140.495848 140.500964S589.591169 652.500964 512 652.500964z" p-id="3976"></path></svg>