<?xml version="1.0" standalone="no"?><!DOCTYPE svg PUBLIC "-//W3C//DTD SVG 1.1//EN" "http://www.w3.org/Graphics/SVG/1.1/DTD/svg11.dtd"><svg t="1586955515977" class="icon" viewBox="0 0 1024 1024" version="1.1" xmlns="http://www.w3.org/2000/svg" p-id="1158" width="128" height="128" xmlns:xlink="http://www.w3.org/1999/xlink"><defs><style type="text/css"></style></defs><path d="M870.4 102.4v819.2H153.6V102.4h716.8m5.12-102.4H148.48C97.28 0 51.2 46.08 51.2 97.28v829.44c0 51.2 46.08 97.28 97.28 97.28h727.04c51.2 0 97.28-46.08 97.28-97.28V97.28c0-51.2-46.08-97.28-97.28-97.28z" p-id="1159"></path><path d="M476.16 261.12c-5.12 0-15.36 0-20.48 5.12-15.36 5.12-20.48 15.36-30.72 20.48-30.72 35.84-61.44 66.56-92.16 97.28l-15.36 15.36c-10.24 25.6 0 51.2 15.36 61.44 10.24 10.24 25.6 10.24 40.96 10.24h281.6c10.24 0 25.6 0 35.84-5.12 20.48-5.12 30.72-25.6 30.72-46.08s-15.36-40.96-30.72-46.08c-5.12 0-10.24-5.12-20.48-5.12H486.4c15.36-10.24 30.72-25.6 35.84-40.96 5.12-20.48 0-40.96-15.36-51.2-10.24-10.24-20.48-15.36-30.72-15.36zM378.88 568.32c-10.24 0-25.6 0-35.84 5.12-20.48 5.12-30.72 25.6-30.72 46.08s15.36 40.96 30.72 46.08c5.12 0 10.24 5.12 20.48 5.12H547.84c-15.36 10.24-30.72 25.6-35.84 40.96-5.12 20.48 0 40.96 15.36 51.2 10.24 10.24 20.48 10.24 30.72 10.24 5.12 0 15.36 0 20.48-5.12 10.24-5.12 20.48-15.36 25.6-20.48l92.16-92.16c5.12-5.12 10.24-10.24 15.36-20.48 10.24-20.48 0-46.08-15.36-61.44-10.24-10.24-25.6-10.24-40.96-10.24-87.04 5.12-179.2 5.12-276.48 5.12 5.12 0 5.12 0 0 0z" p-id="1160"></path></svg>